STARTFONT 2.1
FONT -FontForge-Nasalization-Book-R-Normal--18-170-75-75-P-119-ISO10646-1
SIZE 17 75 75
FONTBOUNDINGBOX 19 18 -1 -4
COMMENT "Generated by fontforge, http://fontforge.sourceforge.net"
COMMENT "(c) 1999-2024 Typodermic Fonts Inc."
STARTPROPERTIES 39
FOUNDRY "FontForge"
FAMILY_NAME "Nasalization"
WEIGHT_NAME "Book"
SLANT "R"
SETWIDTH_NAME "Normal"
ADD_STYLE_NAME ""
PIXEL_SIZE 18
POINT_SIZE 170
RESOLUTION_X 75
RESOLUTION_Y 75
SPACING "P"
AVERAGE_WIDTH 119
CHARSET_REGISTRY "ISO10646"
CHARSET_ENCODING "1"
FONTNAME_REGISTRY ""
CHARSET_COLLECTIONS "ISO10646-1"
FONT_NAME "Nasalization-Regular"
FACE_NAME "Nasalization Regular"
COPYRIGHT "(c) 1999-2024 Typodermic Fonts Inc."
FONT_VERSION "5.100"
FONT_ASCENT 14
FONT_DESCENT 4
UNDERLINE_POSITION -1
UNDERLINE_THICKNESS 1
X_HEIGHT 9
CAP_HEIGHT 11
RAW_ASCENT 800
RAW_DESCENT 200
NORM_SPACE 5
RELATIVE_WEIGHT 40
RELATIVE_SETWIDTH 50
SUPERSCRIPT_X 0
SUPERSCRIPT_Y 5
SUPERSCRIPT_SIZE 5
SUBSCRIPT_X 0
SUBSCRIPT_Y 0
SUBSCRIPT_SIZE 5
AVG_LOWERCASE_WIDTH 111
AVG_UPPERCASE_WIDTH 131
ENDPROPERTIES
CHARS 66
STARTCHAR space
ENCODING 32
SWIDTH 267 0
DWIDTH 5 0
BBX 1 1 0 0
BITMAP
00
ENDCHAR
STARTCHAR dollar
ENCODING 36
SWIDTH 620 0
DWIDTH 11 0
BBX 9 14 1 -1
BITMAP
0C00
0C00
3F80
7F80
C000
C000
7E00
3F80
0180
0180
FF80
FF00
0C00
0C00
ENDCHAR
STARTCHAR zero
ENCODING 48
SWIDTH 748 0
DWIDTH 13 0
BBX 11 12 1 0
BITMAP
3F80
7FC0
60C0
E060
C060
C060
C060
C060
E0E0
60C0
7FC0
1F00
ENDCHAR
STARTCHAR one
ENCODING 49
SWIDTH 337 0
DWIDTH 6 0
BBX 4 12 1 0
BITMAP
E0
F0
70
70
70
70
70
70
70
70
70
70
ENDCHAR
STARTCHAR two
ENCODING 50
SWIDTH 734 0
DWIDTH 13 0
BBX 11 12 1 0
BITMAP
7FC0
7FE0
0060
0060
00E0
0FC0
7F80
F000
C000
C000
FFE0
FFE0
ENDCHAR
STARTCHAR three
ENCODING 51
SWIDTH 681 0
DWIDTH 12 0
BBX 10 12 1 0
BITMAP
FF80
FFC0
00C0
00C0
00C0
3F80
3F80
00C0
00C0
00C0
FFC0
FF80
ENDCHAR
STARTCHAR four
ENCODING 52
SWIDTH 704 0
DWIDTH 13 0
BBX 10 12 1 0
BITMAP
07C0
0FC0
1CC0
38C0
70C0
E0C0
C0C0
C0C0
FFC0
00C0
00C0
00C0
ENDCHAR
STARTCHAR five
ENCODING 53
SWIDTH 685 0
DWIDTH 12 0
BBX 10 12 1 0
BITMAP
FFC0
FFC0
C000
C000
C000
FF80
7FC0
00C0
00C0
00C0
FFC0
FF80
ENDCHAR
STARTCHAR six
ENCODING 54
SWIDTH 713 0
DWIDTH 13 0
BBX 11 12 1 0
BITMAP
1FC0
7FC0
6000
E000
C000
FFC0
FFE0
C060
E060
70E0
7FC0
1F80
ENDCHAR
STARTCHAR seven
ENCODING 55
SWIDTH 651 0
DWIDTH 12 0
BBX 10 12 1 0
BITMAP
FF80
FFC0
00C0
01C0
0180
0380
0700
0E00
0C00
1C00
3800
3000
ENDCHAR
STARTCHAR eight
ENCODING 56
SWIDTH 726 0
DWIDTH 13 0
BBX 11 12 1 0
BITMAP
7FC0
FFE0
C060
C060
E060
7FC0
7FC0
C060
C060
E0E0
FFE0
3F80
ENDCHAR
STARTCHAR nine
ENCODING 57
SWIDTH 713 0
DWIDTH 13 0
BBX 11 12 1 0
BITMAP
7F80
FFC0
C1C0
C0E0
C060
FFE0
7FE0
0060
00C0
01C0
7F80
7F00
ENDCHAR
STARTCHAR equal
ENCODING 61
SWIDTH 619 0
DWIDTH 11 0
BBX 9 6 1 3
BITMAP
FF80
0000
0000
0000
0000
FF80
ENDCHAR
STARTCHAR A
ENCODING 65
SWIDTH 784 0
DWIDTH 14 0
BBX 13 12 1 0
BITMAP
0F00
1F80
1980
19C0
38C0
30C0
30E0
6060
6060
E070
C030
C038
ENDCHAR
STARTCHAR B
ENCODING 66
SWIDTH 719 0
DWIDTH 13 0
BBX 11 12 1 0
BITMAP
7FC0
FFE0
E0E0
E060
E0E0
FFC0
FFC0
E060
E060
E0E0
FFC0
7F80
ENDCHAR
STARTCHAR C
ENCODING 67
SWIDTH 682 0
DWIDTH 12 0
BBX 10 12 1 0
BITMAP
1FC0
7FC0
6000
E000
C000
C000
C000
C000
E000
7000
7FC0
1FC0
ENDCHAR
STARTCHAR D
ENCODING 68
SWIDTH 737 0
DWIDTH 13 0
BBX 11 12 1 0
BITMAP
7F80
FFC0
E0E0
E060
E060
E060
E060
E060
E060
E0E0
FFC0
7F00
ENDCHAR
STARTCHAR E
ENCODING 69
SWIDTH 693 0
DWIDTH 12 0
BBX 10 12 1 0
BITMAP
7FC0
FFC0
E000
C000
E000
7FC0
7FC0
C000
C000
E000
FFC0
3FC0
ENDCHAR
STARTCHAR F
ENCODING 70
SWIDTH 663 0
DWIDTH 12 0
BBX 10 12 1 0
BITMAP
3FC0
7FC0
6000
E000
C000
FFC0
FFC0
C000
C000
C000
C000
C000
ENDCHAR
STARTCHAR G
ENCODING 71
SWIDTH 729 0
DWIDTH 13 0
BBX 11 12 1 0
BITMAP
1FE0
7FE0
6000
E000
C000
C7C0
C7E0
C060
E060
7060
7FE0
1FC0
ENDCHAR
STARTCHAR H
ENCODING 72
SWIDTH 745 0
DWIDTH 13 0
BBX 11 12 1 0
BITMAP
E060
E060
E060
E060
E060
FFE0
FFE0
E060
E060
E060
E060
E060
ENDCHAR
STARTCHAR I
ENCODING 73
SWIDTH 281 0
DWIDTH 5 0
BBX 3 12 1 0
BITMAP
E0
E0
E0
E0
E0
E0
E0
E0
E0
E0
E0
E0
ENDCHAR
STARTCHAR J
ENCODING 74
SWIDTH 583 0
DWIDTH 11 0
BBX 8 12 1 0
BITMAP
03
03
03
03
03
03
03
03
03
07
FE
FC
ENDCHAR
STARTCHAR K
ENCODING 75
SWIDTH 708 0
DWIDTH 13 0
BBX 11 12 1 0
BITMAP
E0E0
E0C0
E1C0
E180
E380
FF00
FF00
E180
E1C0
E0C0
E0E0
E060
ENDCHAR
STARTCHAR L
ENCODING 76
SWIDTH 622 0
DWIDTH 11 0
BBX 10 12 1 0
BITMAP
C000
C000
C000
C000
C000
C000
C000
C000
E000
6000
7FC0
3FC0
ENDCHAR
STARTCHAR M
ENCODING 77
SWIDTH 1102 0
DWIDTH 20 0
BBX 17 12 1 0
BITMAP
7C0F80
7C0F80
EE1D80
E61980
E61980
E61980
E63980
E73180
E33180
E33180
E3F180
E1E180
ENDCHAR
STARTCHAR N
ENCODING 78
SWIDTH 879 0
DWIDTH 16 0
BBX 13 12 1 0
BITMAP
7818
7C18
EC18
E618
E618
E318
E318
E398
E198
E1D8
E0F8
E078
ENDCHAR
STARTCHAR O
ENCODING 79
SWIDTH 816 0
DWIDTH 15 0
BBX 13 12 1 0
BITMAP
1FC0
7FE0
6070
E030
C038
C018
C038
C038
E030
7070
7FE0
1FC0
ENDCHAR
STARTCHAR P
ENCODING 80
SWIDTH 679 0
DWIDTH 12 0
BBX 11 12 1 0
BITMAP
FF80
FFC0
00C0
00E0
00C0
7FC0
7F80
E000
E000
E000
E000
E000
ENDCHAR
STARTCHAR Q
ENCODING 81
SWIDTH 816 0
DWIDTH 15 0
BBX 13 14 1 -2
BITMAP
1FC0
7FE0
6070
E030
C038
C018
C038
C338
E330
71F0
7FE0
1FC0
00C0
0060
ENDCHAR
STARTCHAR R
ENCODING 82
SWIDTH 714 0
DWIDTH 13 0
BBX 11 12 1 0
BITMAP
FFC0
FFC0
00E0
0060
0060
7FC0
7FC0
E380
E180
E1C0
E0C0
E060
ENDCHAR
STARTCHAR S
ENCODING 83
SWIDTH 703 0
DWIDTH 13 0
BBX 11 12 1 0
BITMAP
7FC0
FFC0
C000
C000
E000
7F80
3FC0
00E0
0060
00E0
FFC0
FF80
ENDCHAR
STARTCHAR T
ENCODING 84
SWIDTH 571 0
DWIDTH 10 0
BBX 9 12 1 0
BITMAP
FF80
FF80
1800
1800
1800
1800
1800
1800
1800
1800
1800
1800
ENDCHAR
STARTCHAR U
ENCODING 85
SWIDTH 732 0
DWIDTH 13 0
BBX 11 12 1 0
BITMAP
E060
E060
E060
E060
E060
E060
E060
E060
E060
60E0
7FC0
3F80
ENDCHAR
STARTCHAR V
ENCODING 86
SWIDTH 784 0
DWIDTH 14 0
BBX 13 12 1 0
BITMAP
C038
C030
E070
6060
6060
70E0
30C0
39C0
1980
1980
1F80
0F00
ENDCHAR
STARTCHAR W
ENCODING 87
SWIDTH 1046 0
DWIDTH 19 0
BBX 17 12 1 0
BITMAP
C3E180
C3E180
C36180
C66180
C63180
C63380
C63300
E63300
6C3300
6C3B00
7C1F00
781E00
ENDCHAR
STARTCHAR X
ENCODING 88
SWIDTH 781 0
DWIDTH 14 0
BBX 12 12 1 0
BITMAP
E070
7060
38C0
19C0
0F80
0700
0F00
1F80
39C0
70E0
6060
C030
ENDCHAR
STARTCHAR Y
ENCODING 89
SWIDTH 689 0
DWIDTH 12 0
BBX 11 12 1 0
BITMAP
C0E0
E0C0
7180
3380
1B00
1E00
0C00
0C00
0C00
0C00
0C00
0C00
ENDCHAR
STARTCHAR Z
ENCODING 90
SWIDTH 743 0
DWIDTH 13 0
BBX 11 12 1 0
BITMAP
FFE0
FFE0
0060
0060
01E0
0F80
3E00
7000
C000
C000
FFE0
7FE0
ENDCHAR
STARTCHAR a
ENCODING 97
SWIDTH 672 0
DWIDTH 12 0
BBX 10 10 1 0
BITMAP
7E00
7F80
01C0
00C0
3FC0
7FC0
C0C0
C0C0
FFC0
7F80
ENDCHAR
STARTCHAR b
ENCODING 98
SWIDTH 695 0
DWIDTH 13 0
BBX 11 14 1 0
BITMAP
C000
C000
C000
C000
FE00
FF80
C1C0
C0C0
C060
C060
C060
60C0
7FC0
3F80
ENDCHAR
STARTCHAR c
ENCODING 99
SWIDTH 602 0
DWIDTH 11 0
BBX 9 10 1 0
BITMAP
0F80
7F80
E000
C000
C000
C000
C000
C000
7F80
3F80
ENDCHAR
STARTCHAR d
ENCODING 100
SWIDTH 695 0
DWIDTH 13 0
BBX 10 14 1 0
BITMAP
00C0
00C0
00C0
00C0
0FC0
7FC0
E0C0
C0C0
C0C0
C0C0
C0C0
C0C0
7FC0
3F80
ENDCHAR
STARTCHAR e
ENCODING 101
SWIDTH 652 0
DWIDTH 12 0
BBX 10 10 1 0
BITMAP
1E00
7F80
E1C0
C0C0
C1C0
FF80
C000
C000
7F80
7F80
ENDCHAR
STARTCHAR f
ENCODING 102
SWIDTH 375 0
DWIDTH 7 0
BBX 6 14 0 0
BITMAP
1C
3C
30
30
FC
FC
30
30
30
30
30
30
30
30
ENDCHAR
STARTCHAR g
ENCODING 103
SWIDTH 692 0
DWIDTH 12 0
BBX 10 14 1 -4
BITMAP
0E00
7F80
E1C0
C0C0
C0C0
C0C0
C0C0
E0C0
7FC0
1FC0
00C0
00C0
7FC0
7F00
ENDCHAR
STARTCHAR h
ENCODING 104
SWIDTH 707 0
DWIDTH 13 0
BBX 10 14 1 0
BITMAP
C000
C000
C000
C000
FC00
FF80
C1C0
C0C0
C0C0
C0C0
C0C0
C0C0
C0C0
C0C0
ENDCHAR
STARTCHAR i
ENCODING 105
SWIDTH 258 0
DWIDTH 5 0
BBX 2 13 1 0
BITMAP
C0
C0
00
C0
C0
C0
C0
C0
C0
C0
C0
C0
C0
ENDCHAR
STARTCHAR j
ENCODING 106
SWIDTH 270 0
DWIDTH 5 0
BBX 4 17 -1 -4
BITMAP
10
10
00
10
10
10
10
10
10
10
10
10
10
10
30
F0
E0
ENDCHAR
STARTCHAR k
ENCODING 107
SWIDTH 602 0
DWIDTH 11 0
BBX 9 14 1 0
BITMAP
C000
C000
C000
C000
C180
C180
C300
C700
FE00
FE00
C600
C300
C180
C180
ENDCHAR
STARTCHAR l
ENCODING 108
SWIDTH 258 0
DWIDTH 5 0
BBX 2 14 1 0
BITMAP
C0
C0
C0
C0
C0
C0
C0
C0
C0
C0
C0
C0
C0
C0
ENDCHAR
STARTCHAR m
ENCODING 109
SWIDTH 1032 0
DWIDTH 19 0
BBX 16 10 1 0
BITMAP
3FF0
FFFE
C187
C183
C183
C183
C183
C183
C183
C183
ENDCHAR
STARTCHAR n
ENCODING 110
SWIDTH 707 0
DWIDTH 13 0
BBX 10 10 1 0
BITMAP
3C00
FF80
C1C0
C0C0
C0C0
C0C0
C0C0
C0C0
C0C0
C0C0
ENDCHAR
STARTCHAR o
ENCODING 111
SWIDTH 671 0
DWIDTH 12 0
BBX 10 10 1 0
BITMAP
0C00
7F80
E1C0
C0C0
C0C0
C0C0
C0C0
C0C0
7F80
3F00
ENDCHAR
STARTCHAR p
ENCODING 112
SWIDTH 693 0
DWIDTH 12 0
BBX 11 14 1 -4
BITMAP
0C00
7F80
61C0
C0C0
C060
C060
C040
C0C0
FFC0
FF80
C000
C000
C000
C000
ENDCHAR
STARTCHAR q
ENCODING 113
SWIDTH 693 0
DWIDTH 12 0
BBX 10 14 1 -4
BITMAP
0E00
7F80
E1C0
C0C0
C0C0
C0C0
C0C0
C0C0
7FC0
3FC0
00C0
00C0
00C0
00C0
ENDCHAR
STARTCHAR r
ENCODING 114
SWIDTH 463 0
DWIDTH 8 0
BBX 7 10 1 0
BITMAP
1E
7E
E0
C0
C0
C0
C0
C0
C0
C0
ENDCHAR
STARTCHAR s
ENCODING 115
SWIDTH 586 0
DWIDTH 11 0
BBX 9 10 1 0
BITMAP
1F00
FF00
C000
C000
FC00
7F00
0180
0180
FF00
FF00
ENDCHAR
STARTCHAR t
ENCODING 116
SWIDTH 375 0
DWIDTH 7 0
BBX 6 12 0 0
BITMAP
30
30
FC
FC
30
30
30
30
30
30
3C
1C
ENDCHAR
STARTCHAR u
ENCODING 117
SWIDTH 702 0
DWIDTH 13 0
BBX 10 10 1 0
BITMAP
C0C0
C0C0
C0C0
C0C0
C0C0
C0C0
C0C0
E0C0
7FC0
3F80
ENDCHAR
STARTCHAR v
ENCODING 118
SWIDTH 677 0
DWIDTH 12 0
BBX 12 10 0 0
BITMAP
C030
6060
6060
30E0
30C0
30C0
1980
1980
0F00
0F00
ENDCHAR
STARTCHAR w
ENCODING 119
SWIDTH 977 0
DWIDTH 18 0
BBX 16 10 1 0
BITMAP
C183
C7C3
C6C3
C663
C666
CC66
CC66
CC36
7C36
783C
ENDCHAR
STARTCHAR x
ENCODING 120
SWIDTH 681 0
DWIDTH 12 0
BBX 11 10 1 0
BITMAP
C0E0
60C0
3180
3B00
1E00
0E00
1F00
3380
6180
C0C0
ENDCHAR
STARTCHAR y
ENCODING 121
SWIDTH 647 0
DWIDTH 12 0
BBX 11 14 0 -4
BITMAP
C060
6060
60C0
30C0
30C0
3180
1980
1B00
0F00
0E00
0600
0600
0C00
0C00
ENDCHAR
STARTCHAR z
ENCODING 122
SWIDTH 624 0
DWIDTH 11 0
BBX 9 10 1 0
BITMAP
FE00
FF80
0180
0180
0F80
3C00
E000
C000
FF80
7F80
ENDCHAR
STARTCHAR degree
ENCODING 176
SWIDTH 389 0
DWIDTH 7 0
BBX 6 5 1 7
BITMAP
F8
88
8C
88
F8
ENDCHAR
ENDFONT
